<?xml version="1.0" encoding="UTF-8" standalone="no"?>
<!-- Created with Inkscape (http://www.inkscape.org/) -->

<svg
   xmlns:dc="http://purl.org/dc/elements/1.1/"
   xmlns:cc="http://creativecommons.org/ns#"
   xmlns:rdf="http://www.w3.org/1999/02/22-rdf-syntax-ns#"
   xmlns:svg="http://www.w3.org/2000/svg"
   xmlns="http://www.w3.org/2000/svg"
   xmlns:xlink="http://www.w3.org/1999/xlink"
   xmlns:sodipodi="http://sodipodi.sourceforge.net/DTD/sodipodi-0.dtd"
   xmlns:inkscape="http://www.inkscape.org/namespaces/inkscape"
   width="385"
   height="84.999977"
   id="svg2"
   version="1.1"
   inkscape:version="0.48.0 r9654"
   sodipodi:docname="New document 1">
  <defs
     id="defs4">
    <linearGradient
       id="linearGradient3857">
      <stop
         style="stop-color:#e56e00;stop-opacity:1;"
         offset="0"
         id="stop3859" />
      <stop
         style="stop-color:#871500;stop-opacity:1;"
         offset="1"
         id="stop3861" />
    </linearGradient>
    <linearGradient
       id="linearGradient3833">
      <stop
         style="stop-color:#000080;stop-opacity:1;"
         offset="0"
         id="stop3835" />
      <stop
         style="stop-color:#005cdb;stop-opacity:1;"
         offset="1"
         id="stop3837" />
    </linearGradient>
    <linearGradient
       inkscape:collect="always"
       xlink:href="#linearGradient3833"
       id="linearGradient3839"
       x1="115"
       y1="162.36218"
       x2="115"
       y2="92.362183"
       gradientUnits="userSpaceOnUse" />
    <linearGradient
       inkscape:collect="always"
       xlink:href="#linearGradient3833"
       id="linearGradient3847"
       x1="215"
       y1="162.36218"
       x2="215"
       y2="92.362183"
       gradientUnits="userSpaceOnUse" />
    <linearGradient
       inkscape:collect="always"
       xlink:href="#linearGradient3833"
       id="linearGradient3855"
       x1="355"
       y1="162.36218"
       x2="355"
       y2="92.362183"
       gradientUnits="userSpaceOnUse" />
    <linearGradient
       inkscape:collect="always"
       xlink:href="#linearGradient3857"
       id="linearGradient3863"
       x1="165"
       y1="157.36218"
       x2="165"
       y2="92.362183"
       gradientUnits="userSpaceOnUse" />
    <linearGradient
       inkscape:collect="always"
       xlink:href="#linearGradient3857"
       id="linearGradient3871"
       x1="280"
       y1="157.36218"
       x2="280"
       y2="92.362183"
       gradientUnits="userSpaceOnUse" />
    <linearGradient
       inkscape:collect="always"
       xlink:href="#linearGradient3857"
       id="linearGradient3879"
       x1="420"
       y1="157.36218"
       x2="420"
       y2="92.362183"
       gradientUnits="userSpaceOnUse" />
    <linearGradient
       inkscape:collect="always"
       xlink:href="#linearGradient3833"
       id="linearGradient3915"
       gradientUnits="userSpaceOnUse"
       x1="115"
       y1="162.36218"
       x2="115"
       y2="92.362183" />
    <linearGradient
       inkscape:collect="always"
       xlink:href="#linearGradient3857"
       id="linearGradient3917"
       gradientUnits="userSpaceOnUse"
       x1="165"
       y1="157.36218"
       x2="165"
       y2="92.362183" />
    <linearGradient
       inkscape:collect="always"
       xlink:href="#linearGradient3833"
       id="linearGradient3919"
       gradientUnits="userSpaceOnUse"
       x1="215"
       y1="162.36218"
       x2="215"
       y2="92.362183" />
    <linearGradient
       inkscape:collect="always"
       xlink:href="#linearGradient3857"
       id="linearGradient3921"
       gradientUnits="userSpaceOnUse"
       x1="280"
       y1="157.36218"
       x2="280"
       y2="92.362183" />
    <linearGradient
       inkscape:collect="always"
       xlink:href="#linearGradient3833"
       id="linearGradient3923"
       gradientUnits="userSpaceOnUse"
       x1="355"
       y1="162.36218"
       x2="355"
       y2="92.362183" />
    <linearGradient
       inkscape:collect="always"
       xlink:href="#linearGradient3857"
       id="linearGradient3925"
       gradientUnits="userSpaceOnUse"
       x1="420"
       y1="157.36218"
       x2="420"
       y2="92.362183" />
  </defs>
  <sodipodi:namedview
     id="base"
     pagecolor="#ffffff"
     bordercolor="#666666"
     borderopacity="1.0"
     inkscape:pageopacity="0.0"
     inkscape:pageshadow="2"
     inkscape:zoom="3.959798"
     inkscape:cx="188.92467"
     inkscape:cy="27.688926"
     inkscape:document-units="px"
     inkscape:current-layer="layer1"
     showgrid="false"
     fit-margin-top="0"
     fit-margin-left="0"
     fit-margin-right="0"
     fit-margin-bottom="0"
     inkscape:window-width="1920"
     inkscape:window-height="1151"
     inkscape:window-x="0"
     inkscape:window-y="0"
     inkscape:window-maximized="1">
    <inkscape:grid
       type="xygrid"
       id="grid2985"
       empspacing="5"
       visible="true"
       enabled="true"
       snapvisiblegridlinesonly="true" />
  </sodipodi:namedview>
  <metadata
     id="metadata7">
    <rdf:RDF>
      <cc:Work
         rdf:about="">
        <dc:format>image/svg+xml</dc:format>
        <dc:type
           rdf:resource="http://purl.org/dc/dcmitype/StillImage" />
        <dc:title></dc:title>
      </cc:Work>
    </rdf:RDF>
  </metadata>
  <g
     inkscape:label="Layer 1"
     inkscape:groupmode="layer"
     id="layer1"
     transform="translate(-80,-92.362183)">
    <g
       id="g3889"
       transform="translate(5,4.9999826)"
       style="fill:#000000">
      <path
         style="fill:#000000;fill-opacity:1;stroke:none"
         d="m 100,102.36218 c -6.666667,10 -13.333333,20 -20,30 13.333333,0 26.66667,0 40,0 -3.33333,3.33333 -6.66667,6.66667 -10,10 -6.66667,-0.004 -13.333333,-0.009 -20,-0.0128 -3.333333,6.67094 -6.666667,13.34188 -10,20.01282 20,-3.33334 40,-6.66668 60,-10.00002 3.33333,-9.99999 6.66667,-19.99999 10,-29.99998 -13.33333,-1e-5 -26.66667,-1e-5 -40,-2e-5 3.33333,-3.33333 6.66667,-6.66665 10,-9.99998 6.66667,-0.004 13.33333,-0.009 20,-0.0128 3.33333,-6.66239 6.66667,-13.324785 10,-19.987177 -16.66667,3.333319 -33.33333,6.666638 -50,9.999957 z"
         id="path3891"
         inkscape:connector-curvature="0" />
      <path
         style="fill:#000000;fill-opacity:1;stroke:none"
         d="m 150,152.36218 30,0 -10,-59.999994 -10,0 z"
         id="path3893"
         inkscape:connector-curvature="0"
         sodipodi:nodetypes="ccccc" />
      <path
         style="fill:#000000;fill-opacity:1;stroke:none"
         d="m 180,102.36218 10,50 50,0 10,-50 -30,-9.98718 0,50 -10,0 0,-50 z"
         id="path3895"
         inkscape:connector-curvature="0"
         sodipodi:nodetypes="ccccccccc" />
      <path
         style="fill:#000000;fill-opacity:1;stroke:none"
         d="m 260,102.34936 -10,50.01282 60,10 10,-20 -40,0 10,-10 20,0 10,-39.999997 z m 10,10.01282 30,0 0,10 -30,0 z"
         id="path3897"
         inkscape:connector-curvature="0"
         sodipodi:nodetypes="cccccccccccccc" />
      <path
         style="fill:#000000;fill-opacity:1;stroke:none"
         d="m 330,102.34936 -10,40.01282 50,0 0,10 -40,0 -10,20 60,-10.01282 10,-69.987177 z m 10,10.01282 30,0 0,10 -30,0 z"
         id="path3899"
         inkscape:connector-curvature="0"
         sodipodi:nodetypes="cccccccccccccc" />
      <path
         style="fill:#000000;fill-opacity:1;stroke:none"
         d="m 400,102.36218 -10,50 30,10 20,-10 10,10 10,0.0124 -20,-70.012397 z m 10,10 20,0 10,30 -30,0 z"
         id="path3901"
         inkscape:connector-curvature="0"
         sodipodi:nodetypes="ccccccccccccc" />
    </g>
    <g
       id="g3881">
      <path
         inkscape:connector-curvature="0"
         id="rect2987"
         d="m 100,102.36218 c -6.666667,10 -13.333333,20 -20,30 13.333333,0 26.66667,0 40,0 -3.33333,3.33333 -6.66667,6.66667 -10,10 -6.66667,-0.004 -13.333333,-0.009 -20,-0.0128 -3.333333,6.67094 -6.666667,13.34188 -10,20.01282 20,-3.33334 40,-6.66668 60,-10.00002 3.33333,-9.99999 6.66667,-19.99999 10,-29.99998 -13.33333,-1e-5 -26.66667,-1e-5 -40,-2e-5 3.33333,-3.33333 6.66667,-6.66665 10,-9.99998 6.66667,-0.004 13.33333,-0.009 20,-0.0128 3.33333,-6.66239 6.66667,-13.324785 10,-19.987177 -16.66667,3.333319 -33.33333,6.666638 -50,9.999957 z"
         style="fill:url(#linearGradient3915);fill-opacity:1;stroke:none" />
      <path
         sodipodi:nodetypes="ccccc"
         inkscape:connector-curvature="0"
         id="rect3763"
         d="m 150,152.36218 30,0 -10,-59.999994 -10,0 z"
         style="fill:url(#linearGradient3917);fill-opacity:1;stroke:none" />
      <path
         sodipodi:nodetypes="ccccccccc"
         inkscape:connector-curvature="0"
         id="rect3765"
         d="m 180,102.36218 10,50 50,0 10,-50 -30,-9.98718 0,50 -10,0 0,-50 z"
         style="fill:url(#linearGradient3919);fill-opacity:1;stroke:none" />
      <path
         sodipodi:nodetypes="cccccccccccccc"
         inkscape:connector-curvature="0"
         id="rect3770"
         d="m 260,102.34936 -10,50.01282 60,10 10,-20 -40,0 10,-10 20,0 10,-39.999997 z m 10,10.01282 30,0 0,10 -30,0 z"
         style="fill:url(#linearGradient3921);fill-opacity:1;stroke:none" />
      <path
         sodipodi:nodetypes="cccccccccccccc"
         inkscape:connector-curvature="0"
         id="rect3778"
         d="m 330,102.34936 -10,40.01282 50,0 0,10 -40,0 -10,20 60,-10.01282 10,-69.987177 z m 10,10.01282 30,0 0,10 -30,0 z"
         style="fill:url(#linearGradient3923);fill-opacity:1;stroke:none" />
      <path
         sodipodi:nodetypes="ccccccccccccc"
         inkscape:connector-curvature="0"
         id="rect3786"
         d="m 400,102.36218 -10,50 30,10 20,-10 10,10 10,0.0124 -20,-70.012397 z m 10,10 20,0 10,30 -30,0 z"
         style="fill:url(#linearGradient3925);fill-opacity:1;stroke:none" />
    </g>
  </g>
</svg>
